<svg width="62px" height="58px" viewBox="0 0 62 58" fill="none" xmlns="http://www.w3.org/2000/svg">
<path fill-rule="evenodd" clip-rule="evenodd" d="M31.1349 57.1605C14.3045 57.1605 0.663574 44.4756 0.663574 28.8285C0.663574 13.1814 14.3067 0.49646 31.1349 0.49646C47.9631 0.49646 61.6019 13.1814 61.6019 28.8285C61.6019 44.4756 47.9587 57.1605 31.1349 57.1605ZM38.7936 14.301C37.3749 14.1568 35.948 14.0883 34.5203 14.0958C30.2858 14.0958 27.3809 16.4601 27.3809 20.792V24.524H22.6033V29.5925H27.3809V42.59H33.1175V29.5905H37.8778L38.6083 24.522H33.1175V21.2863C33.1175 19.8306 33.5484 18.8204 35.8543 18.8204H38.7958V14.301H38.7936Z" fill="#6D6D6D"/>
</svg>
