<svg width="60px" height="58px" viewBox="0 0 60 58" fill="none" xmlns="http://www.w3.org/2000/svg">
<path fill-rule="evenodd" clip-rule="evenodd" d="M30.0083 57.1605C13.6012 57.1605 0.299805 44.4756 0.299805 28.8285C0.299805 13.1814 13.6012 0.49646 30.0083 0.49646C46.4154 0.49646 59.7167 13.1814 59.7167 28.8285C59.7167 44.4756 46.4154 57.1605 30.0083 57.1605ZM35.2721 29.7996C35.2721 32.8321 32.679 35.3038 29.4998 35.3038C26.3205 35.3038 23.7274 32.8321 23.7274 29.7996C23.7274 26.769 26.3205 24.2954 29.4998 24.2954C32.679 24.2954 35.2721 26.769 35.2721 29.7996ZM38.382 29.7996C38.382 25.1121 34.4147 21.3273 29.4998 21.3273C24.5827 21.3273 20.6154 25.1121 20.6154 29.7996C20.6154 34.489 24.5848 38.2718 29.4998 38.2718C34.4147 38.2718 38.382 34.4871 38.382 29.7996V29.7996ZM40.8175 20.9834C40.8216 20.7268 40.7712 20.4719 40.6691 20.2335C40.567 19.995 40.4152 19.7776 40.2225 19.5939C40.0298 19.4101 39.7999 19.2636 39.5461 19.1627C39.2922 19.0619 39.0195 19.0086 38.7435 19.0061C38.4674 19.0086 38.1947 19.0619 37.9409 19.1627C37.687 19.2636 37.4572 19.4101 37.2644 19.5939C37.0717 19.7776 36.9199 19.995 36.8178 20.2335C36.7157 20.4719 36.6653 20.7268 36.6695 20.9834C36.6695 22.0816 37.594 22.9628 38.7435 22.9628C39.0197 22.9602 39.2926 22.9069 39.5466 22.8059C39.8005 22.7049 40.0305 22.5582 40.2232 22.3743C40.416 22.1903 40.5677 21.9727 40.6697 21.734C40.7717 21.4953 40.8219 21.2403 40.8175 20.9834V20.9834ZM29.4998 16.2549C32.0234 16.2549 37.4364 16.0595 39.7122 16.9193C40.5023 17.2221 41.0885 17.5875 41.6958 18.1678C42.3052 18.7481 42.6897 19.307 43.0049 20.0592C43.9064 22.232 43.7026 27.3923 43.7026 29.7996C43.7026 32.2088 43.9064 37.3691 43.0049 39.5399C42.6897 40.2922 42.3052 40.851 41.6958 41.4333C41.1405 41.9786 40.4634 42.4042 39.7122 42.6799C37.4364 43.5396 32.0234 43.3462 29.4998 43.3462C26.974 43.3462 21.5631 43.5396 19.2873 42.6799C18.5353 42.4044 17.8575 41.9789 17.3016 41.4333C16.725 40.8966 16.2793 40.2509 15.9946 39.5399C15.091 37.3691 15.2948 32.2088 15.2948 29.7996C15.2948 27.3923 15.091 22.232 15.9946 20.0592C16.3098 19.307 16.6922 18.7481 17.3016 18.1678C17.8567 17.6218 18.5338 17.1956 19.2852 16.9193C21.5631 16.0595 26.974 16.2549 29.4977 16.2549H29.4998ZM46.8146 29.7996C46.8146 27.5213 46.8356 25.2626 46.7012 22.9843C46.5667 20.3386 45.9363 17.9959 43.9064 16.0595C41.8765 14.1251 39.4201 13.5233 36.6463 13.3944C34.2571 13.2654 31.889 13.2869 29.4998 13.2869C27.1084 13.2869 24.7424 13.2654 22.3511 13.3944C19.5773 13.5233 17.1209 14.1251 15.091 16.0595C13.0632 17.9939 12.4307 20.3386 12.2962 22.9843C12.1618 25.2626 12.1828 27.5213 12.1828 29.7996C12.1828 32.0798 12.1618 34.3366 12.2962 36.6169C12.4307 39.2605 13.0632 41.6053 15.091 43.5396C17.1209 45.474 19.5794 46.0778 22.3511 46.2068C24.7424 46.3357 27.1084 46.3142 29.4998 46.3142C31.889 46.3142 34.2571 46.3338 36.6463 46.2068C39.4201 46.0778 41.8786 45.474 43.9064 43.5396C45.9363 41.6053 46.5667 39.2605 46.7012 36.6169C46.8377 34.3366 46.8146 32.0798 46.8146 29.7996V29.7996Z" fill="#6D6D6D"/>
</svg>
